<?xml version="1.0" standalone="no"?>
<!DOCTYPE svg PUBLIC "-//W3C//DTD SVG 20010904//EN"
 "http://www.w3.org/TR/2001/REC-SVG-20010904/DTD/svg10.dtd">
<svg version="1.0" xmlns="http://www.w3.org/2000/svg"
 width="781.000000pt" height="360.000000pt" viewBox="0 0 781.000000 360.000000"
 preserveAspectRatio="xMidYMid meet">

<g transform="translate(0.000000,360.000000) scale(0.100000,-0.100000)"
fill="#000000" stroke="none">
<path d="M3612 2224 c-57 -31 -99 -47 -134 -51 -33 -3 -71 -17 -111 -41 -34
-19 -126 -66 -205 -104 l-143 -68 -28 19 c-52 37 -72 36 -168 -12 -49 -25
-118 -65 -154 -89 -35 -24 -80 -50 -99 -58 -19 -7 -48 -22 -63 -33 -17 -12
-38 -17 -54 -14 -14 3 -66 -4 -116 -14 -127 -27 -163 -25 -217 11 -25 16 -56
30 -69 30 -14 0 -87 -29 -162 -65 -125 -59 -144 -65 -201 -65 -42 0 -71 5 -86
16 -21 15 -26 14 -68 -11 l-46 -27 -22 21 c-12 12 -27 21 -33 21 -5 0 -18 9
-28 20 -10 11 -22 20 -27 20 -6 0 -18 10 -28 22 l-18 23 -54 -24 c-112 -49
-98 -48 -188 -3 -59 29 -88 38 -103 33 -24 -9 -83 6 -112 28 -20 16 -20 16 0
-9 11 -14 44 -50 74 -80 50 -51 53 -52 32 -17 -12 20 -18 37 -13 37 6 0 12 -6
15 -12 2 -7 8 -1 12 15 4 15 11 27 16 27 15 0 147 -68 154 -79 7 -12 -49 -74
-58 -64 -4 3 -7 1 -7 -6 0 -8 -8 -11 -20 -8 -10 3 -21 0 -22 -5 -2 -6 -19 2
-38 18 l-35 28 28 -30 c15 -17 27 -35 27 -42 0 -15 7 -15 65 2 26 8 63 30 81
47 38 36 46 27 13 -15 -14 -17 -16 -24 -6 -20 8 3 24 28 35 55 12 27 29 52 39
56 10 3 29 15 41 27 24 21 24 21 41 1 9 -11 34 -29 56 -40 54 -28 85 -54 85
-72 0 -11 -10 -6 -35 16 -49 43 -58 39 -13 -6 l37 -36 35 24 c20 13 36 26 36
29 0 3 4 12 10 20 7 12 12 10 30 -12 11 -15 31 -28 45 -30 22 -3 18 -7 -33
-41 -50 -33 -57 -36 -63 -20 -5 14 -7 13 -12 -7 -4 -14 -25 -38 -47 -54 -22
-17 -40 -33 -40 -38 0 -13 -90 -127 -113 -143 -12 -8 -22 -19 -22 -23 0 -30
-85 -86 -155 -102 l-35 -8 31 -1 c58 -2 136 43 192 111 72 88 125 146 117 128
-5 -8 -17 -25 -28 -37 -10 -12 -16 -26 -12 -32 3 -6 -3 -36 -14 -66 -23 -60
-19 -76 5 -20 19 47 98 149 134 175 17 12 30 18 30 14 0 -3 8 -1 18 7 9 7 -13
-19 -50 -57 -62 -64 -85 -96 -56 -78 7 4 8 3 4 -5 -4 -6 -11 -9 -15 -6 -5 2
-17 -5 -27 -18 l-19 -22 21 18 c15 13 23 15 26 6 2 -6 28 18 57 55 29 36 57
66 61 66 13 0 96 109 92 121 -1 6 2 8 7 5 5 -4 18 5 29 19 15 19 21 22 25 11
7 -17 -16 -39 -28 -28 -5 4 -5 1 -1 -6 5 -8 -1 -24 -15 -40 -13 -15 -1 -7 26
18 27 25 42 36 34 25 -96 -121 -142 -175 -147 -171 -3 3 -12 0 -20 -7 -13 -10
-14 -9 -3 12 8 13 16 19 20 13 3 -5 14 1 25 17 20 26 20 26 0 8 -12 -9 -23
-15 -26 -11 -3 3 -29 -27 -58 -65 -54 -73 -64 -83 -53 -54 4 11 3 14 -6 9 -7
-5 -10 -15 -7 -23 4 -9 2 -11 -6 -7 -7 5 -8 3 -3 -6 5 -8 4 -11 -2 -7 -9 6
-23 -12 -23 -30 0 -3 23 15 50 39 28 23 73 59 99 78 27 19 87 71 134 115 47
44 113 97 147 118 47 30 61 44 59 60 -2 15 13 38 43 69 25 26 48 52 50 58 5
17 79 -52 103 -95 16 -32 17 -38 5 -45 -37 -21 -52 -40 -17 -21 21 12 43 18
49 15 5 -3 2 8 -7 26 -13 24 -14 35 -4 46 13 16 39 19 39 4 0 -5 -5 -10 -12
-10 -6 0 -9 -3 -6 -6 3 -3 24 4 47 16 42 21 55 18 24 -6 -16 -12 -15 -13 10
-4 16 5 37 14 47 20 14 7 18 6 16 -5 -1 -8 -6 -18 -11 -22 -4 -5 -5 -1 0 7 5
9 5 12 -1 7 -5 -5 -9 -12 -9 -17 0 -4 -18 -25 -41 -46 -22 -22 -31 -31 -19
-21 30 24 42 21 19 -5 l-19 -23 26 23 c49 43 44 21 -6 -26 -28 -26 -41 -40
-30 -32 11 8 36 29 56 47 19 19 46 35 58 38 27 5 41 15 21 15 -10 0 -10 3 0
15 7 8 9 15 4 15 -17 0 17 24 36 25 l20 2 -20 -22 c-11 -12 -18 -24 -15 -27 3
-3 -38 -45 -90 -93 -53 -48 -93 -90 -90 -93 3 -3 22 10 42 29 l37 34 -42 -51
c-42 -51 -55 -77 -28 -55 9 7 17 8 20 2 3 -5 0 -11 -6 -14 -7 -2 -11 -7 -8
-10 3 -3 37 19 75 49 88 70 97 75 60 33 -16 -18 -21 -27 -10 -18 11 8 33 21
49 29 16 8 50 41 74 73 25 31 48 55 50 52 3 -3 -3 -15 -14 -28 -43 -48 -46
-60 -6 -22 23 21 42 35 42 31 0 -5 6 -3 13 3 8 6 18 7 22 3 5 -4 6 -2 3 3 -3
6 15 36 41 69 60 76 155 135 220 137 25 1 56 3 69 4 22 2 30 -9 13 -19 -5 -4
-11 0 -13 6 -3 8 -10 4 -17 -11 -11 -19 -11 -22 1 -15 16 10 48 16 48 9 0 -11
-69 -31 -137 -40 -16 -2 -20 1 -16 13 5 13 2 13 -14 -3 -11 -11 -19 -23 -16
-27 4 -7 -12 -12 -30 -9 -4 1 -12 -10 -19 -24 -10 -22 -12 -23 -23 -8 -11 15
-14 13 -29 -15 -9 -18 -19 -32 -22 -32 -3 0 -2 5 2 12 5 7 3 8 -5 4 -7 -5 -10
-14 -7 -22 3 -8 0 -13 -6 -11 -6 1 -13 -4 -16 -12 -3 -9 0 -11 8 -6 7 4 5 -5
-4 -24 -9 -17 -19 -31 -22 -31 -2 0 0 9 6 21 7 11 9 23 6 26 -2 3 -19 -20 -37
-51 -17 -32 -34 -55 -36 -52 -3 3 7 26 21 51 40 68 24 54 -25 -22 -24 -37 -63
-85 -87 -107 -24 -22 -62 -62 -84 -90 -23 -28 -35 -45 -28 -38 20 18 29 15 25
-8 -2 -12 0 -18 6 -14 6 3 8 9 5 12 -3 3 0 12 8 21 8 9 15 19 16 23 1 6 30 34
199 193 30 28 48 40 42 28 -6 -12 -16 -25 -21 -28 -6 -4 -8 -11 -4 -16 3 -5
23 4 45 22 21 17 39 29 39 26 0 -2 -42 -46 -93 -98 -51 -52 -67 -69 -35 -39
42 39 61 51 69 43 8 -8 8 -17 -1 -34 -11 -23 -10 -23 5 -4 8 11 13 25 10 33
-2 7 -1 10 5 7 5 -3 16 8 25 25 26 51 25 33 -1 -25 -50 -109 -17 -72 59 68 43
78 76 131 72 117 -6 -24 -5 -24 9 -6 27 34 18 10 -39 -104 -61 -122 -72 -155
-21 -67 18 31 36 54 40 50 4 -4 4 1 0 11 -5 13 -4 17 4 12 8 -5 10 -1 5 10 -4
12 -3 15 5 10 8 -5 10 -1 5 10 -5 13 -3 15 7 9 9 -5 11 -4 6 3 -4 7 -3 12 2
12 5 0 15 12 21 28 6 15 21 38 32 52 20 25 20 25 9 1 -7 -13 -13 -36 -15 -50
-1 -14 -5 -35 -10 -46 -4 -11 10 9 30 44 29 51 35 71 30 97 -5 27 -2 34 15 39
26 8 43 40 35 65 -5 16 -2 20 19 20 30 0 31 3 10 35 -13 20 -13 25 -3 25 9 0
6 7 -7 21 -30 30 -119 34 -156 7 -16 -11 -28 -17 -28 -14 0 3 19 19 42 36 56
41 90 39 163 -10 33 -22 71 -40 84 -40 14 0 33 -8 44 -17 19 -17 20 -17 9 2
-12 23 12 80 29 69 7 -4 9 0 5 13 -3 11 1 27 10 39 15 18 15 18 5 -3 -15 -30
-13 -42 3 -20 27 35 27 -12 0 -65 -14 -27 -23 -52 -21 -55 7 -7 51 18 60 34 5
8 16 11 27 8 17 -5 23 7 50 92 28 93 32 100 74 126 45 28 78 33 119 18 34 -13
93 4 138 40 20 16 38 26 41 23 3 -2 13 7 22 21 l17 25 47 -24 c26 -13 53 -21
61 -18 10 3 12 -4 9 -31 -2 -20 -1 -34 3 -31 4 2 10 -2 13 -8 3 -7 4 7 2 30
-4 40 -2 43 15 39 17 -5 18 -3 8 9 -8 10 -22 13 -40 9 -18 -4 -41 1 -68 14
-57 29 -75 27 -169 -25z m13 -20 c-36 -28 -61 -36 -30 -10 17 14 35 26 40 26
6 -1 1 -8 -10 -16z m-355 -193 c-15 -29 -12 -35 7 -20 17 13 17 13 1 -11 -9
-14 -21 -24 -27 -22 -6 1 -11 -1 -11 -5 0 -5 -10 -19 -21 -33 -18 -21 -17 -18
4 20 13 25 30 55 36 68 6 12 14 22 17 22 2 0 0 -9 -6 -19z m-119 -48 c-17 -26
-31 -45 -31 -42 0 13 53 100 58 95 2 -3 -9 -27 -27 -53z m-49 -2 c-9 -16 -18
-28 -20 -27 -5 6 21 56 29 56 5 0 0 -13 -9 -29z m-156 -42 c37 -22 45 -49 16
-49 -10 0 -23 -5 -30 -12 -9 -9 -12 -9 -12 1 0 11 -3 11 -17 0 -16 -13 -17
-12 -4 3 7 10 17 16 21 13 5 -3 11 -1 14 4 7 11 -20 20 -50 17 -11 -1 -35 -12
-52 -25 -21 -14 -32 -18 -32 -10 0 7 -18 -5 -40 -26 -22 -21 -40 -35 -40 -30
0 5 -15 -6 -33 -23 -18 -18 -37 -29 -40 -25 -4 4 -34 -19 -65 -50 -32 -32 -61
-55 -65 -51 -3 3 -14 -8 -25 -24 -10 -17 -31 -41 -46 -53 l-29 -22 13 24 c16
29 329 349 342 349 5 0 -43 -50 -106 -111 -64 -61 -116 -116 -116 -122 0 -6
33 21 73 59 82 80 201 163 249 174 18 4 35 8 37 9 2 1 19 -8 37 -20z m-372
-164 c-59 -62 -112 -111 -117 -108 -6 4 -7 1 -2 -6 8 -14 -33 -64 -46 -56 -4
3 -27 -18 -51 -47 -62 -74 -99 -109 -109 -102 -15 9 25 56 143 173 60 59 110
115 112 123 3 22 37 71 43 64 4 -3 -2 -16 -13 -28 -10 -13 -1 -7 21 12 22 19
34 28 28 20 -7 -7 -13 -18 -13 -24 0 -5 22 14 49 42 28 29 53 52 56 52 4 0
-42 -52 -101 -115z m-618 -50 c-9 -14 -21 -25 -26 -25 -6 0 -10 -11 -10 -24 0
-20 -11 -30 -55 -51 -30 -15 -62 -25 -70 -21 -31 11 -11 65 25 66 8 1 44 20
80 44 36 24 67 42 69 40 2 -2 -4 -15 -13 -29z m399 -15 c-3 -5 -1 -10 6 -10 8
0 9 -3 0 -13 -6 -8 -7 -18 -3 -22 4 -5 1 -5 -5 -1 -7 4 -19 4 -25 0 -7 -5 -21
-9 -32 -9 -15 -2 -10 6 20 31 41 36 49 40 39 24z m-677 -93 c-37 -30 -93 -63
-84 -49 7 11 96 72 105 72 3 -1 -6 -11 -21 -23z m988 -15 c-17 -16 -18 -16 -5
5 7 12 15 20 18 17 3 -2 -3 -12 -13 -22z m67 3 c-3 -9 -8 -14 -10 -11 -3 3 -2
9 2 15 9 16 15 13 8 -4z m-348 -43 l-28 -27 23 33 c12 18 25 31 28 27 3 -3 -7
-18 -23 -33z m-813 -194 c-7 -7 -12 -8 -12 -2 0 6 3 14 7 17 3 4 9 5 12 2 2
-3 -1 -11 -7 -17z"/>
<path d="M2730 1828 c-12 -22 -12 -22 6 -6 10 10 15 20 12 24 -4 3 -12 -5 -18
-18z"/>
<path d="M2529 1673 c-13 -16 -12 -17 4 -4 16 13 21 21 13 21 -2 0 -10 -8 -17
-17z"/>
<path d="M2534 1738 l-29 -33 33 29 c17 17 32 31 32 33 0 8 -8 1 -36 -29z"/>
<path d="M2314 1518 c-16 -18 -38 -44 -49 -58 -16 -21 -14 -20 14 5 31 28 77
85 69 85 -2 0 -17 -15 -34 -32z"/>
<path d="M1870 1659 c-19 -16 -31 -29 -26 -29 5 0 -2 -9 -15 -20 -20 -18 -16
-17 29 5 54 26 69 41 30 30 -22 -6 -22 -6 2 14 14 11 23 22 20 24 -3 3 -21 -8
-40 -24z"/>
<path d="M2324 1658 l-19 -23 23 19 c21 18 27 26 19 26 -2 0 -12 -10 -23 -22z"/>
<path d="M3987 2147 c4 -9 46 -51 93 -94 l85 -78 -40 55 c-36 49 -37 53 -13
38 26 -17 26 -17 37 12 5 17 12 30 15 30 2 0 34 -13 69 -30 36 -16 68 -30 72
-30 4 0 23 -9 41 -21 l33 -20 -26 -30 c-15 -16 -33 -27 -39 -25 -8 3 -11 -1
-8 -9 4 -10 0 -12 -17 -8 -15 4 -20 3 -15 -5 6 -11 -13 -17 -37 -13 -5 1 -7
-4 -4 -11 2 -7 0 -21 -5 -32 -9 -17 -13 -16 -47 15 -24 22 -22 19 6 -9 25 -26
48 -40 55 -36 8 5 9 2 5 -9 -9 -24 0 -21 14 4 9 17 8 20 -3 14 -7 -5 -10 -4
-5 1 5 5 13 9 17 9 5 0 16 9 25 20 14 19 15 19 8 1 -4 -13 -3 -17 5 -12 8 5
10 2 5 -9 -4 -12 -8 -13 -13 -5 -4 7 -15 -3 -29 -27 l-21 -38 21 25 c12 14 25
26 30 26 5 1 11 3 14 4 3 1 10 3 17 4 6 0 13 8 15 16 4 13 3 13 -6 0 -6 -8
-11 -10 -11 -5 0 6 9 21 20 35 15 18 18 20 13 6 -5 -14 -3 -17 6 -12 8 5 7 -3
-4 -24 -9 -18 -25 -35 -36 -37 -10 -3 -19 -8 -19 -12 0 -4 -16 -15 -35 -25
-37 -20 -39 -43 -2 -25 19 9 19 8 -3 -12 -24 -21 -24 -21 -2 -15 12 4 22 4 22
0 0 -12 -43 -44 -59 -44 -16 0 -70 -79 -90 -130 -10 -28 -18 -17 -23 34 -2 16
-9 32 -17 34 -11 4 -13 -6 -7 -52 4 -38 3 -55 -4 -51 -5 3 -11 21 -11 38 -2
31 -2 31 -6 4 l-4 -28 -40 32 c-28 22 -43 44 -51 75 -7 24 -15 39 -19 33 -3
-6 -12 10 -19 36 -19 66 -31 66 -13 -1 8 -31 13 -58 11 -59 -2 -2 -21 3 -43
10 -26 9 -43 11 -51 4 -8 -6 -23 2 -48 27 -20 20 -36 40 -36 45 0 4 -7 6 -15
3 -8 -4 -17 1 -21 10 -3 9 -10 13 -15 10 -5 -3 13 -29 41 -58 28 -30 57 -61
64 -71 8 -11 21 -16 33 -13 21 6 43 -19 43 -47 0 -8 5 -15 10 -15 6 0 10 -9
10 -20 0 -11 5 -20 10 -20 6 0 10 -4 10 -9 0 -4 20 -39 45 -77 56 -84 58 -73
4 26 -58 109 -81 161 -75 167 16 16 66 -18 155 -106 86 -85 179 -161 198 -161
8 0 -7 54 -19 65 -7 7 -9 3 -5 -13 5 -21 2 -20 -30 12 -20 20 -40 36 -45 36
-5 0 -7 10 -4 23 3 12 3 16 0 10 -14 -30 -22 -9 -10 25 28 80 59 142 67 136 5
-3 9 0 9 7 0 7 3 10 6 6 4 -3 1 -20 -5 -38 -6 -18 -9 -34 -7 -37 3 -2 10 14
17 37 16 55 39 54 40 -1 0 -33 2 -38 9 -23 16 37 11 -8 -9 -85 -11 -41 -18
-76 -16 -78 2 -2 24 61 50 140 26 78 53 146 60 151 7 4 16 25 20 47 10 57 97
208 151 260 l45 45 23 -27 c12 -16 29 -28 37 -28 9 0 24 -9 33 -19 10 -11 31
-23 47 -26 16 -4 42 -22 57 -41 15 -19 35 -34 45 -34 15 0 47 40 61 75 2 6 29
-16 59 -47 30 -32 62 -58 71 -58 8 0 34 -18 58 -40 24 -22 69 -59 100 -82 52
-38 69 -68 29 -53 -13 5 -14 4 -3 -6 9 -10 15 -10 24 -1 14 14 32 16 23 2 -3
-5 0 -8 7 -5 14 5 252 -174 244 -183 -3 -3 -14 1 -23 9 -17 13 -17 13 0 -7 14
-17 15 -26 6 -53 -6 -18 -16 -30 -23 -28 -41 17 -47 16 -17 -2 18 -12 35 -20
38 -17 3 3 15 32 27 66 l22 61 24 -51 c18 -38 29 -50 46 -50 14 0 33 -13 48
-32 30 -39 35 -29 6 12 -11 15 -30 30 -42 34 -14 3 -33 23 -47 51 l-24 46 69
71 c38 39 56 61 39 49 -46 -35 -135 -121 -135 -132 0 -11 -24 1 -60 32 l-25
21 30 24 c74 61 290 204 352 234 29 14 52 29 53 34 0 4 -8 5 -17 1 -10 -4 -25
-8 -33 -9 -9 -1 -56 -27 -106 -58 -96 -59 -120 -68 -201 -69 -43 -1 -63 5
-111 33 -72 43 -125 55 -155 35 -49 -31 -72 -29 -118 12 -24 21 -63 48 -86 60
-23 11 -63 42 -88 68 -51 51 -38 50 -133 11 -25 -9 -33 -8 -60 10 -18 12 -46
31 -63 43 -17 12 -37 22 -44 23 -7 1 -24 15 -38 31 l-25 30 -79 -34 c-107 -48
-145 -47 -255 7 -70 34 -91 40 -111 33 -29 -11 -100 3 -135 25 -21 14 -23 14
-15 1z m418 -256 c-14 -28 -35 -49 -35 -36 0 7 42 65 47 65 2 0 -3 -13 -12
-29z m-155 -22 c-7 -11 -14 -18 -17 -15 -3 3 0 12 7 21 18 21 23 19 10 -6z
m1130 -89 c33 -17 60 -35 60 -40 0 -5 -12 -16 -27 -24 -18 -10 -22 -15 -12
-16 9 0 28 9 42 20 33 26 45 26 21 -1 -23 -25 -67 -49 -90 -49 -20 0 -164 91
-164 103 0 11 52 32 85 35 14 1 53 -12 85 -28z m110 -80 c-20 -13 -33 -13 -25
0 3 6 14 10 23 10 15 0 15 -2 2 -10z m-85 -50 c-8 -13 1 -13 28 1 21 10 21 10
2 -6 -11 -8 -26 -13 -33 -10 -8 3 -18 5 -23 5 -5 0 -9 5 -9 10 0 6 9 10 21 10
11 0 17 -4 14 -10z"/>
<path d="M5371 1751 c-10 -7 -7 -9 12 -8 14 1 23 5 20 10 -6 9 -15 9 -32 -2z"/>
<path d="M3864 2119 c-3 -6 -1 -16 5 -22 8 -8 11 -5 11 11 0 24 -5 28 -16 11z"/>
<path d="M3583 2103 c-7 -3 -13 -11 -13 -20 0 -12 2 -12 16 2 18 17 16 25 -3
18z"/>
<path d="M3365 2056 c-23 -25 -26 -40 -4 -19 12 12 21 24 18 27 -2 2 -9 -1
-14 -8z"/>
<path d="M3715 2030 c10 -11 20 -20 23 -20 3 0 -3 9 -13 20 -10 11 -20 20 -23
20 -3 0 3 -9 13 -20z"/>
<path d="M4220 2036 c0 -2 7 -7 16 -10 8 -3 12 -2 9 4 -6 10 -25 14 -25 6z"/>
<path d="M3206 1973 c-6 -14 -5 -15 5 -6 7 7 10 15 7 18 -3 3 -9 -2 -12 -12z"/>
<path d="M4185 1970 c10 -11 20 -20 23 -20 3 0 -3 9 -13 20 -10 11 -20 20 -23
20 -3 0 3 -9 13 -20z"/>
<path d="M3730 1900 c66 -130 58 -94 -10 53 -7 15 -17 27 -22 27 -4 0 10 -36
32 -80z"/>
<path d="M3320 1943 c0 -4 5 -15 10 -23 8 -13 10 -13 10 2 0 9 -4 20 -10 23
-5 3 -10 3 -10 -2z"/>
<path d="M580 1869 c-37 -22 -78 -39 -95 -39 -18 0 -61 -20 -111 -50 l-82 -51
-38 26 c-20 14 -40 25 -45 25 -13 0 -153 -79 -184 -105 -16 -13 -26 -27 -23
-30 8 -8 162 75 196 105 20 18 55 -10 91 -74 17 -31 35 -56 40 -56 10 0 21 30
41 107 15 58 63 88 127 79 54 -7 94 9 144 58 l34 34 48 -25 c39 -19 48 -28 44
-44 -3 -10 -1 -19 4 -19 5 0 9 14 9 31 0 20 4 28 12 23 7 -5 8 -3 3 5 -4 7
-16 10 -27 8 -11 -3 -34 3 -51 14 -44 26 -62 23 -137 -22z"/>
<path d="M3550 1887 c0 -15 41 -89 47 -84 3 3 -7 25 -21 49 -14 24 -26 39 -26
35z"/>
<path d="M4822 1860 c0 -14 2 -19 5 -12 2 6 2 18 0 25 -3 6 -5 1 -5 -13z"/>
<path d="M5915 1856 c17 -14 35 -26 40 -26 11 1 -20 27 -50 41 -11 6 -6 -1 10
-15z"/>
<path d="M3416 1850 c6 -23 6 -24 -11 -10 -17 14 -17 14 -2 -17 21 -39 22 -60
5 -45 -10 8 -13 2 -14 -23 0 -28 -31 -115 -40 -115 -1 0 -14 4 -28 10 -14 5
-25 6 -25 2 3 -20 -2 -33 -11 -27 -16 10 -11 -1 7 -16 14 -12 16 -12 8 0 -6
10 -4 12 4 7 7 -5 10 -11 7 -14 -3 -3 -1 -11 4 -17 8 -9 6 -14 -5 -19 -10 -3
-13 -11 -9 -18 4 -7 -2 -5 -14 5 -35 31 -48 9 -15 -25 27 -30 28 -30 3 -18
l-25 13 20 -24 c11 -13 13 -18 5 -11 -18 15 -34 16 -24 0 4 -7 3 -8 -5 -4 -6
4 -9 11 -6 15 2 5 -8 19 -23 32 l-27 24 24 -27 c27 -31 19 -37 -13 -11 -12 9
-4 0 16 -20 21 -21 34 -37 28 -37 -5 0 -12 5 -15 10 -4 6 -14 9 -23 8 -9 -2
-16 3 -15 10 2 6 -1 12 -6 12 -5 0 -13 12 -19 28 -13 38 -68 123 -75 116 -3
-3 -13 8 -22 25 -9 18 -20 29 -25 26 -6 -4 -10 -1 -10 4 0 19 -55 12 -73 -9
-17 -20 -50 -91 -44 -96 1 -1 18 21 38 49 20 29 42 51 50 49 8 -2 21 -4 30 -5
10 -1 30 -27 48 -65 17 -34 35 -61 40 -58 9 6 28 -35 62 -132 10 -29 14 -50 9
-47 -6 3 -7 0 -4 -8 9 -24 -14 -66 -48 -86 -17 -11 -35 -18 -40 -15 -4 3 -8 1
-8 -5 0 -6 -11 -13 -25 -17 -14 -3 -25 -9 -25 -13 0 -4 -6 -8 -12 -8 -37 -2
-253 -34 -257 -38 -6 -7 8 -6 136 5 187 17 262 54 326 161 20 35 36 54 34 42
-1 -11 -9 -28 -16 -37 -18 -21 -2 -20 30 2 61 41 134 111 166 159 21 32 43 53
56 55 15 2 30 19 48 55 23 49 27 52 45 39 10 -7 24 -15 29 -17 6 -2 46 -54 90
-115 44 -61 92 -127 107 -145 27 -33 28 -33 43 -15 8 11 15 25 14 30 0 6 -3 5
-6 -2 -2 -6 -10 -9 -15 -6 -7 4 -8 2 -4 -4 5 -8 2 -10 -8 -6 -12 5 -13 11 -6
24 15 28 12 37 -4 14 -8 -10 -18 -16 -22 -12 -4 4 -1 14 6 23 7 9 10 18 7 22
-4 3 -9 -2 -13 -11 -3 -9 -10 -13 -15 -10 -5 3 -5 13 1 24 15 28 12 36 -6 14
-14 -18 -15 -18 -10 6 3 14 3 19 0 13 -3 -7 -10 -13 -15 -13 -6 0 -5 9 2 21 6
13 7 19 1 15 -6 -3 -12 -3 -15 1 -2 5 -2 2 0 -5 1 -7 -2 -10 -8 -6 -6 3 -9 14
-6 24 3 11 0 17 -7 14 -6 -2 -31 26 -56 62 -24 36 -57 72 -72 80 -15 8 -41 34
-58 59 -32 47 -44 57 -33 28 8 -20 -82 41 -104 72 -14 19 -15 19 -7 -5z m18
-142 c-15 -29 -20 -47 -12 -40 8 6 18 9 22 5 4 -4 4 1 0 11 -5 12 -4 17 3 13
5 -4 15 5 22 20 21 46 22 17 1 -33 -11 -28 -14 -41 -6 -31 10 13 15 14 18 5 3
-7 11 2 19 20 18 42 30 41 18 0 -12 -44 -10 -49 6 -13 12 26 14 27 15 8 0 -12
-4 -33 -10 -48 -8 -22 -13 -24 -29 -15 -11 5 -42 10 -70 10 -28 0 -51 2 -51 5
0 13 75 154 78 146 2 -5 -9 -33 -24 -63z m-63 -196 c-14 -26 -14 -35 -1 -27 6
3 10 0 10 -7 0 -7 14 2 30 20 17 18 30 28 30 22 0 -15 -51 -61 -61 -55 -4 3
-10 -4 -14 -15 -3 -11 -11 -20 -16 -20 -6 0 -6 7 1 19 5 11 10 23 9 28 0 4
-10 -12 -22 -36 -12 -25 -27 -46 -34 -48 -7 -3 7 29 30 70 23 42 43 74 45 72
2 -2 -1 -12 -7 -23z"/>
<path d="M4950 1866 c0 -2 8 -10 18 -17 15 -13 16 -12 3 4 -13 16 -21 21 -21
13z"/>
<path d="M6019 1851 c-13 -10 -31 -21 -39 -24 -10 -4 -8 -6 6 -6 12 -1 27 6
34 14 17 20 32 19 101 -6 l58 -21 41 21 c39 20 43 21 76 5 40 -19 44 -34 9
-34 -14 0 -43 -11 -65 -25 -38 -24 -42 -25 -73 -10 -28 14 -30 14 -13 0 11 -8
25 -15 30 -15 9 0 -69 -51 -99 -64 -17 -8 19 -26 39 -20 11 4 16 2 12 -4 -8
-13 32 -48 43 -36 5 5 16 35 25 66 21 74 55 100 117 92 40 -5 49 -2 92 31 43
33 52 36 73 26 35 -15 30 -4 -7 14 -28 15 -32 15 -65 -4 -43 -25 -72 -26 -119
-4 -33 16 -37 16 -64 0 -38 -22 -69 -21 -131 3 -61 24 -52 24 -81 1z m101
-165 c0 -3 -4 -8 -10 -11 -5 -3 -10 -1 -10 4 0 6 5 11 10 11 6 0 10 -2 10 -4z
m55 -27 c-10 -15 -25 -10 -19 6 4 8 10 12 15 9 5 -3 7 -10 4 -15z"/>
<path d="M5806 1838 c-9 -12 -14 -23 -13 -24 1 -2 22 1 45 7 38 8 48 7 75 -12
l32 -22 -34 36 c-41 44 -81 49 -105 15z"/>
<path d="M5010 1840 c0 -5 5 -10 11 -10 5 0 7 5 4 10 -3 6 -8 10 -11 10 -2 0
-4 -4 -4 -10z"/>
<path d="M6527 1833 c-2 -5 -1 -21 3 -38 l6 -30 5 38 c4 33 -3 50 -14 30z"/>
<path d="M4131 1804 c0 -11 3 -14 6 -6 3 7 2 16 -1 19 -3 4 -6 -2 -5 -13z"/>
<path d="M5690 1757 c-19 -24 -24 -33 -11 -22 l24 20 -8 -23 c-6 -21 -5 -23
12 -13 11 5 26 17 33 26 7 9 27 23 44 32 19 10 26 18 18 21 -8 2 -31 -10 -53
-27 -41 -33 -46 -33 -28 1 19 35 5 28 -31 -15z"/>
<path d="M7315 1739 c-76 -77 -91 -85 -115 -64 -16 15 -20 15 -52 -1 -34 -16
-35 -16 -84 17 -27 19 -53 40 -57 47 -12 18 -33 15 -88 -13 -40 -20 -55 -22
-77 -15 l-27 10 24 -18 23 -19 -24 -26 c-14 -15 -28 -24 -31 -20 -4 3 -7 1 -7
-5 0 -16 -43 -15 -59 1 -11 9 -10 7 0 -13 8 -14 15 -27 16 -29 1 -1 23 4 50
13 31 11 70 37 112 76 61 58 81 70 81 51 0 -4 19 -21 43 -37 23 -15 54 -39 69
-52 l27 -25 18 31 c21 37 29 40 38 12 3 -11 11 -20 16 -20 14 0 -114 -168
-128 -169 -17 -1 -17 -21 0 -21 7 0 37 29 67 65 29 35 57 63 61 62 5 -1 20 16
35 38 14 22 23 31 19 20 -4 -11 -9 -27 -12 -35 -3 -8 10 9 28 39 38 63 49 56
19 -13 -11 -26 -20 -51 -20 -54 1 -13 39 64 56 111 9 27 18 46 21 43 7 -7 -26
-114 -49 -159 -11 -22 -15 -36 -9 -32 18 11 48 76 72 158 12 42 26 77 31 77 5
0 31 -13 59 -28 l49 -29 -38 -27 c-21 -14 -52 -41 -68 -59 -16 -18 -19 -23 -6
-13 12 11 22 16 22 11 0 -4 8 -1 17 6 14 12 16 12 9 -1 -4 -8 6 1 24 20 l31
35 -17 -35 c-17 -34 -17 -35 2 -20 39 30 64 55 64 64 0 12 32 35 47 36 7 0 42
-20 78 -44 58 -40 62 -46 42 -52 -12 -4 -42 -6 -67 -5 -30 1 -41 -1 -31 -8 11
-7 9 -16 -14 -47 l-27 -39 34 38 c41 44 56 48 31 10 l-17 -28 27 24 c15 14 27
19 27 12 0 -9 6 -8 22 3 12 9 31 16 41 16 16 0 17 -3 7 -15 -15 -18 -1 -20 35
-3 18 8 25 19 25 40 0 23 -4 28 -25 28 -29 0 -83 26 -134 64 -38 28 -66 32
-105 15 -21 -10 -33 -7 -89 25 -36 20 -69 36 -74 36 -5 0 -35 -27 -68 -61z"/>
<path d="M781 1774 c0 -11 3 -14 6 -6 3 7 2 16 -1 19 -3 4 -6 -2 -5 -13z"/>
<path d="M3216 1778 c16 -28 37 -47 46 -42 5 3 -1 17 -13 30 -24 25 -45 33
-33 12z"/>
<path d="M4859 1739 c-2 -70 -5 -157 -8 -189 -1 -22 -3 -23 -12 -7 -6 9 -14
15 -20 12 -5 -4 -9 -2 -9 2 0 5 -10 14 -21 22 -15 9 -11 1 12 -28 19 -22 39
-41 45 -41 6 0 16 15 22 33 11 31 11 30 6 -13 -3 -25 -5 -76 -4 -113 1 -41 -3
-74 -10 -83 -7 -8 -8 -14 -2 -14 29 0 33 31 32 225 -1 59 -18 236 -23 242 -4
3 -8 -18 -8 -48z"/>
<path d="M6660 1735 c51 -52 83 -77 47 -37 -18 20 -23 37 -8 27 6 -3 14 2 20
12 9 17 11 17 45 0 45 -21 48 -14 4 9 -18 10 -48 17 -66 15 -19 -1 -48 5 -65
14 -28 14 -25 9 23 -40z"/>
<path d="M547 1773 c7 -2 9 -12 6 -21 -6 -15 -5 -15 10 -3 23 18 21 27 -5 28
-13 0 -18 -1 -11 -4z"/>
<path d="M4141 1760 c0 -8 4 -22 9 -30 12 -18 12 -2 0 25 -6 13 -9 15 -9 5z"/>
<path d="M3631 1723 c38 -63 61 -94 66 -89 5 5 -74 126 -83 126 -3 0 5 -17 17
-37z"/>
<path d="M5910 1749 c0 -5 5 -7 10 -4 6 3 10 8 10 11 0 2 -4 4 -10 4 -5 0 -10
-5 -10 -11z"/>
<path d="M6100 1756 c0 -2 8 -10 18 -17 15 -13 16 -12 3 4 -13 16 -21 21 -21
13z"/>
<path d="M6357 1745 c3 -8 9 -12 14 -9 12 7 11 11 -5 17 -10 4 -13 1 -9 -8z"/>
<path d="M5820 1739 c0 -10 50 -32 57 -25 2 2 -10 11 -26 19 -17 9 -31 11 -31
6z"/>
<path d="M6045 1730 c10 -11 20 -20 23 -20 3 0 -3 9 -13 20 -10 11 -20 20 -23
20 -3 0 3 -9 13 -20z"/>
<path d="M2706 1725 c-9 -26 -7 -32 5 -12 6 10 9 21 6 23 -2 3 -7 -2 -11 -11z"/>
<path d="M5050 1705 c13 -14 26 -25 28 -25 3 0 -5 11 -18 25 -13 14 -26 25
-28 25 -3 0 5 -11 18 -25z"/>
<path d="M5614 1698 l-19 -23 23 19 c12 11 22 21 22 23 0 8 -8 2 -26 -19z"/>
<path d="M5739 1703 c-12 -16 -12 -17 2 -6 9 7 20 9 24 5 5 -4 5 -1 1 6 -9 16
-11 15 -27 -5z"/>
<path d="M382 1690 c0 -14 2 -19 5 -12 2 6 2 18 0 25 -3 6 -5 1 -5 -13z"/>
<path d="M7377 1680 c-3 -11 -1 -20 4 -20 5 0 9 9 9 20 0 11 -2 20 -4 20 -2 0
-6 -9 -9 -20z"/>
<path d="M134 1678 c-4 -6 -3 -8 4 -4 6 3 13 2 17 -4 3 -5 14 -10 23 -10 13 0
13 2 -4 15 -23 18 -31 18 -40 3z"/>
<path d="M2040 1680 c-12 -8 -11 -10 7 -10 12 0 25 5 28 10 8 13 -15 13 -35 0z"/>
<path d="M4610 1633 c-6 -32 -14 -68 -17 -80 -3 -13 0 -23 6 -23 10 0 16 20
12 42 0 4 4 30 9 59 6 29 8 54 6 56 -2 3 -10 -22 -16 -54z"/>
<path d="M5806 1682 c-3 -5 1 -9 9 -9 8 0 12 4 9 9 -3 4 -7 8 -9 8 -2 0 -6 -4
-9 -8z"/>
<path d="M4533 1665 c0 -8 4 -12 9 -9 5 3 6 10 3 15 -9 13 -12 11 -12 -6z"/>
<path d="M1391 1645 c9 -11 21 -29 27 -40 6 -11 12 -14 12 -8 0 7 -12 25 -27
41 -16 15 -21 19 -12 7z"/>
<path d="M2070 1660 c-8 -5 -10 -10 -5 -10 6 0 17 5 25 10 8 5 11 10 5 10 -5
0 -17 -5 -25 -10z"/>
<path d="M5100 1645 c13 -14 26 -25 28 -25 3 0 -5 11 -18 25 -13 14 -26 25
-28 25 -3 0 5 -11 18 -25z"/>
<path d="M2095 1639 c-16 -11 -23 -19 -15 -19 16 1 56 27 49 34 -2 2 -17 -5
-34 -15z"/>
<path d="M6881 1627 c-13 -21 -12 -21 5 -5 10 10 16 20 13 22 -3 3 -11 -5 -18
-17z"/>
<path d="M12 1631 c-8 -4 -12 -18 -10 -31 3 -21 4 -21 26 9 22 30 14 41 -16
22z"/>
<path d="M403 1600 c0 -25 2 -35 4 -22 2 12 2 32 0 45 -2 12 -4 2 -4 -23z"/>
<path d="M1372 1605 c11 -20 23 -34 25 -31 5 5 -35 66 -42 66 -3 0 5 -16 17
-35z"/>
<path d="M5016 1627 c3 -10 9 -15 12 -12 3 3 0 11 -7 18 -10 9 -11 8 -5 -6z"/>
<path d="M7168 1615 c-16 -13 -28 -28 -28 -34 0 -5 14 4 31 20 38 36 35 47 -3
14z"/>
<path d="M2737 1515 c-31 -63 -55 -115 -52 -115 7 0 117 221 113 226 -2 2 -29
-48 -61 -111z"/>
<path d="M1343 1586 c12 -19 26 -35 30 -36 9 0 -28 56 -43 65 -6 3 0 -10 13
-29z"/>
<path d="M2304 1588 l-29 -33 33 29 c30 28 37 36 29 36 -2 0 -16 -15 -33 -32z"/>
<path d="M4721 1604 c0 -11 3 -14 6 -6 3 7 2 16 -1 19 -3 4 -6 -2 -5 -13z"/>
<path d="M7542 1550 c-22 -38 -39 -70 -37 -70 4 0 70 95 89 128 4 6 3 12 -2
12 -5 0 -28 -31 -50 -70z"/>
<path d="M3283 1592 c10 -10 14 -22 10 -27 -5 -4 -2 -5 5 -1 11 6 10 12 -4 27
-9 10 -19 19 -22 19 -3 0 2 -8 11 -18z"/>
<path d="M7474 1578 c-9 -18 -24 -44 -32 -58 l-14 -25 21 25 c28 32 54 80 47
87 -2 3 -12 -10 -22 -29z"/>
<path d="M7503 1554 c-18 -30 -28 -52 -22 -49 15 10 61 85 57 95 -2 5 -18 -16
-35 -46z"/>
<path d="M1311 1576 c7 -15 15 -23 17 -16 3 7 -3 19 -13 28 -15 16 -16 15 -4
-12z"/>
<path d="M2019 1561 c18 -23 35 -41 38 -41 4 0 -2 9 -12 20 -22 25 -13 26 23
3 26 -17 26 -17 13 0 -8 10 -33 28 -55 39 l-39 20 32 -41z"/>
<path d="M2156 1591 c-4 -6 -1 -11 6 -11 7 -1 0 -12 -17 -26 l-30 -26 33 18
c35 20 36 22 23 43 -6 9 -11 10 -15 2z"/>
<path d="M2472 1510 c-40 -50 -70 -90 -68 -90 9 0 149 171 144 175 -2 3 -37
-36 -76 -85z"/>
<path d="M2996 1585 c-5 -15 13 -35 32 -35 9 0 12 6 8 16 -3 9 -6 19 -6 23 0
13 -29 9 -34 -4z"/>
<path d="M4549 1593 c-1 -5 -1 -12 0 -16 1 -5 -8 -23 -20 -40 l-21 -32 25 29
c14 16 25 38 24 48 -1 18 -6 24 -8 11z"/>
<path d="M6825 1590 c-4 -6 3 -10 14 -10 25 0 27 6 6 13 -8 4 -17 2 -20 -3z"/>
<path d="M5246 1581 c-6 -9 38 -38 122 -80 64 -32 50 -17 -20 23 -35 20 -56
36 -48 36 9 1 5 6 -10 15 -30 17 -37 18 -44 6z m34 -11 c8 -5 11 -10 5 -10 -5
0 -17 5 -25 10 -8 5 -10 10 -5 10 6 0 17 -5 25 -10z"/>
<path d="M7427 1545 c-14 -25 -24 -45 -22 -45 8 0 58 80 54 85 -3 2 -17 -16
-32 -40z"/>
<path d="M7790 1576 c-6 -9 -10 -21 -8 -28 3 -8 9 -4 17 10 15 28 9 39 -9 18z"/>
<path d="M471 1564 c0 -11 3 -14 6 -6 3 7 2 16 -1 19 -3 4 -6 -2 -5 -13z"/>
<path d="M1126 1571 c-6 -9 35 -24 43 -15 6 5 -18 24 -31 24 -4 0 -9 -4 -12
-9z"/>
<path d="M512 1545 c0 -16 2 -22 5 -12 2 9 2 23 0 30 -3 6 -5 -1 -5 -18z"/>
<path d="M1879 1528 c-19 -24 -26 -37 -16 -29 20 16 61 71 54 71 -3 0 -20 -19
-38 -42z"/>
<path d="M1912 1534 c-12 -19 -20 -34 -18 -34 7 0 49 61 44 65 -2 2 -13 -12
-26 -31z"/>
<path d="M5563 1562 c-8 -5 -9 -13 -3 -22 11 -17 23 -8 18 14 -2 9 -8 12 -15
8z"/>
<path d="M542 1540 c0 -14 2 -19 5 -12 2 6 2 18 0 25 -3 6 -5 1 -5 -13z"/>
<path d="M1290 1551 c0 -6 4 -13 10 -16 6 -3 7 1 4 9 -7 18 -14 21 -14 7z"/>
<path d="M7367 1535 c-16 -14 -32 -23 -37 -20 -5 3 -12 0 -16 -6 -7 -12 10
-10 50 7 15 6 17 4 11 -7 -5 -8 1 -6 13 4 11 11 18 25 15 33 -6 17 -2 18 -36
-11z"/>
<path d="M1955 1524 c-9 -15 -12 -23 -6 -20 11 7 35 46 28 46 -3 0 -12 -12
-22 -26z"/>
<path d="M2970 1539 c0 -6 -6 -9 -14 -6 -9 4 -16 -3 -20 -19 -4 -14 -12 -24
-19 -21 -6 2 -20 -6 -32 -18 -11 -12 -41 -34 -66 -49 -35 -20 -48 -34 -53 -57
-10 -51 -6 -56 12 -19 19 39 41 45 53 15 5 -14 8 -15 9 -5 1 11 4 9 9 -4 6
-16 10 -10 21 28 14 51 49 86 86 86 21 0 24 5 24 40 0 22 -2 40 -5 40 -3 0 -5
-5 -5 -11z"/>
<path d="M4712 1532 c6 -23 -6 -30 -16 -9 -3 6 -3 -2 -1 -19 3 -16 1 -41 -4
-55 -9 -23 -10 -23 -10 -2 -1 16 -6 21 -16 17 -11 -5 -15 1 -16 22 -1 19 -3
22 -6 11 -3 -11 -11 -16 -19 -13 -31 12 -22 -17 20 -62 51 -55 63 -82 16 -37
-16 16 -30 25 -30 20 0 -4 -10 0 -22 11 l-23 19 19 -23 c11 -12 17 -25 14 -28
-3 -3 -22 14 -42 37 -20 24 -36 38 -36 33 0 -6 5 -15 10 -20 6 -6 13 -21 15
-34 3 -13 12 -31 22 -39 14 -14 14 -12 -2 14 -17 28 -17 29 -1 15 10 -8 22
-25 27 -38 5 -13 14 -20 20 -16 8 4 8 9 0 17 -6 6 -11 16 -11 22 0 5 16 -8 34
-30 19 -22 37 -37 42 -33 9 10 33 142 33 190 1 20 -4 40 -11 44 -8 5 -9 0 -6
-14z m-57 -92 c21 -22 37 -40 34 -40 -3 0 -23 18 -44 40 -21 22 -37 40 -34 40
3 0 23 -18 44 -40z m16 -83 l22 -32 -31 29 c-18 17 -32 34 -32 38 0 15 18 0
41 -35z"/>
<path d="M1849 1523 c-13 -16 -12 -17 4 -4 9 7 17 15 17 17 0 8 -8 3 -21 -13z"/>
<path d="M2154 1524 c-18 -14 -18 -14 6 -3 31 14 36 19 24 19 -6 0 -19 -7 -30
-16z"/>
<path d="M2451 1517 c-13 -21 -12 -21 5 -5 10 10 16 20 13 22 -3 3 -11 -5 -18
-17z"/>
<path d="M221 1480 c19 -25 50 -64 69 -87 18 -24 35 -41 38 -38 5 5 -100 136
-126 157 -9 7 -1 -7 19 -32z"/>
<path d="M275 1485 c42 -60 117 -147 122 -141 2 2 0 21 -6 42 -6 21 -9 39 -7
41 2 2 20 -19 41 -47 39 -53 61 -65 50 -27 -5 18 0 15 24 -13 40 -46 40 -29 0
21 -32 41 -56 52 -45 22 6 -19 -19 7 -62 62 l-23 30 4 -49 5 -49 -42 49 c-73
85 -92 105 -61 59z"/>
<path d="M1974 1498 l-19 -23 23 19 c21 18 27 26 19 26 -2 0 -12 -10 -23 -22z"/>
<path d="M4662 1495 c0 -16 2 -22 5 -12 2 9 2 23 0 30 -3 6 -5 -1 -5 -18z"/>
<path d="M2585 1500 c-3 -5 -3 -10 2 -10 4 0 -17 -26 -47 -57 l-55 -58 62 59
c34 33 60 63 57 68 -7 11 -11 10 -19 -2z"/>
<path d="M5031 1494 c0 -11 3 -14 6 -6 3 7 2 16 -1 19 -3 4 -6 -2 -5 -13z"/>
<path d="M2154 1484 c-18 -14 -18 -15 4 -4 12 6 22 13 22 15 0 8 -5 6 -26 -11z"/>
<path d="M3588 1475 c-3 -14 -1 -25 3 -25 5 0 9 11 9 25 0 14 -2 25 -4 25 -2
0 -6 -11 -8 -25z"/>
<path d="M185 1480 c23 -42 67 -100 76 -100 6 0 -7 21 -27 48 -47 58 -60 72
-49 52z"/>
<path d="M1200 1469 c0 -5 -6 -7 -12 -3 -8 5 -7 0 2 -11 13 -16 15 -16 18 -2
2 10 16 17 40 20 l37 4 -42 1 c-25 1 -43 -3 -43 -9z"/>
<path d="M4010 1461 c5 -11 15 -23 21 -27 6 -3 3 5 -6 20 -20 30 -30 35 -15 7z"/>
<path d="M1308 1446 c-15 -13 -33 -26 -40 -29 -10 -3 -8 -9 6 -20 19 -14 18
-16 -25 -36 -24 -11 -33 -18 -19 -15 14 4 40 13 59 22 l33 15 -22 17 -21 16
25 13 c14 8 27 20 30 27 7 18 6 18 -26 -10z"/>
<path d="M1525 1418 l-40 -43 43 40 c39 36 47 45 39 45 -2 0 -21 -19 -42 -42z"/>
<path d="M2379 1433 l-24 -28 28 24 c25 23 32 31 24 31 -2 0 -14 -12 -28 -27z"/>
<path d="M6220 1456 c0 -2 8 -10 18 -17 15 -13 16 -12 3 4 -13 16 -21 21 -21
13z"/>
<path d="M6336 1447 c3 -10 9 -15 12 -12 3 3 0 11 -7 18 -10 9 -11 8 -5 -6z"/>
<path d="M7439 1446 c-25 -6 -56 -19 -70 -29 -23 -17 -23 -17 11 -1 20 10 61
17 98 18 53 1 60 3 45 13 -19 15 -21 15 -84 -1z"/>
<path d="M662 1430 c0 -14 2 -19 5 -12 2 6 2 18 0 25 -3 6 -5 1 -5 -13z"/>
<path d="M2025 1439 c-4 -6 -5 -12 -2 -15 2 -3 7 2 10 11 7 17 1 20 -8 4z"/>
<path d="M7560 1428 c0 -6 7 -8 15 -5 8 4 17 2 20 -3 4 -6 12 -10 18 -10 14 1
-22 23 -40 26 -7 1 -13 -2 -13 -8z"/>
<path d="M7637 1416 c10 -13 20 -20 21 -15 5 12 -17 39 -30 39 -5 0 -1 -11 9
-24z"/>
<path d="M175 1410 c10 -11 20 -20 23 -20 3 0 -3 9 -13 20 -10 11 -20 20 -23
20 -3 0 3 -9 13 -20z"/>
<path d="M2036 1413 c-6 -14 -5 -15 5 -6 7 7 10 15 7 18 -3 3 -9 -2 -12 -12z"/>
<path d="M7003 1414 c-5 -13 -8 -13 -15 -2 -8 10 -11 10 -15 0 -3 -7 -17 -27
-31 -45 l-26 -32 26 23 c24 22 26 22 30 5 3 -13 10 -7 26 25 12 23 20 42 17
42 -3 0 -8 -7 -12 -16z"/>
<path d="M1170 1410 c0 -5 7 -7 15 -4 8 4 15 8 15 10 0 2 -7 4 -15 4 -8 0 -15
-4 -15 -10z"/>
<path d="M4733 1385 c0 -22 2 -30 4 -17 2 12 2 30 0 40 -3 9 -5 -1 -4 -23z"/>
<path d="M4950 1408 c0 -9 5 -20 10 -23 13 -8 13 5 0 25 -8 13 -10 13 -10 -2z"/>
<path d="M5730 1416 c0 -2 8 -10 18 -17 15 -13 16 -12 3 4 -13 16 -21 21 -21
13z"/>
<path d="M5775 1400 c10 -11 20 -20 23 -20 3 0 -3 9 -13 20 -10 11 -20 20 -23
20 -3 0 3 -9 13 -20z"/>
<path d="M6190 1416 c0 -2 8 -10 18 -17 15 -13 16 -12 3 4 -13 16 -21 21 -21
13z"/>
<path d="M7780 1416 c0 -2 8 -10 18 -17 15 -13 16 -12 3 4 -13 16 -21 21 -21
13z"/>
<path d="M40 1406 c0 -2 8 -10 18 -17 15 -13 16 -12 3 4 -13 16 -21 21 -21 13z"/>
<path d="M6240 1406 c0 -2 8 -10 18 -17 15 -13 16 -12 3 4 -13 16 -21 21 -21
13z"/>
<path d="M90 1396 c0 -2 8 -10 18 -17 15 -13 16 -12 3 4 -13 16 -21 21 -21 13z"/>
<path d="M1760 1391 c0 -5 5 -13 10 -16 6 -3 10 -2 10 4 0 5 -4 13 -10 16 -5
3 -10 2 -10 -4z"/>
<path d="M1927 1389 c7 -7 15 -10 18 -7 3 3 -2 9 -12 12 -14 6 -15 5 -6 -5z"/>
<path d="M2045 1389 c-4 -6 -5 -12 -2 -15 2 -3 7 2 10 11 7 17 1 20 -8 4z"/>
<path d="M2334 1378 l-19 -23 23 19 c12 11 22 21 22 23 0 8 -8 2 -26 -19z"/>
<path d="M5120 1398 c0 -11 30 -78 35 -78 3 0 -2 17 -10 37 -15 36 -25 52 -25
41z"/>
<path d="M2737 1383 c-3 -5 -1 -17 4 -28 4 -11 8 -15 8 -8 1 6 4 18 7 27 6 16
-11 23 -19 9z"/>
<path d="M3886 1375 c-9 -26 -7 -32 5 -12 6 10 9 21 6 23 -2 3 -7 -2 -11 -11z"/>
<path d="M4500 1386 c0 -2 8 -10 18 -17 15 -13 16 -12 3 4 -13 16 -21 21 -21
13z"/>
<path d="M5579 1375 c5 -11 17 -29 26 -40 l16 -20 -10 20 c-5 11 -17 29 -26
40 l-16 20 10 -20z"/>
<path d="M1920 1361 c24 -20 40 -26 40 -16 0 2 -15 12 -32 20 l-33 16 25 -20z"/>
<path d="M2056 1363 c-6 -14 -5 -15 5 -6 7 7 10 15 7 18 -3 3 -9 -2 -12 -12z"/>
<path d="M3906 1365 c-9 -26 -7 -32 5 -12 6 10 9 21 6 23 -2 3 -7 -2 -11 -11z"/>
<path d="M4375 1360 c10 -11 20 -20 23 -20 3 0 -3 9 -13 20 -10 11 -20 20 -23
20 -3 0 3 -9 13 -20z"/>
<path d="M4455 1360 c10 -11 20 -20 23 -20 3 0 -3 9 -13 20 -10 11 -20 20 -23
20 -3 0 3 -9 13 -20z"/>
<path d="M4485 1360 c10 -11 20 -20 23 -20 3 0 -3 9 -13 20 -10 11 -20 20 -23
20 -3 0 3 -9 13 -20z"/>
<path d="M4940 1366 c0 -8 4 -17 9 -20 5 -4 7 3 4 14 -6 23 -13 26 -13 6z"/>
<path d="M5567 1349 c10 -17 24 -36 32 -42 8 -7 2 7 -14 31 -32 49 -45 57 -18
11z"/>
<path d="M5690 1372 c0 -6 11 -17 25 -26 14 -9 25 -13 25 -9 -1 12 -50 46 -50
35z"/>
<path d="M6039 1366 c23 -27 101 -60 114 -47 8 8 7 11 -3 11 -8 0 -39 11 -69
25 -33 16 -49 20 -42 11z"/>
<path d="M155 1350 c10 -11 20 -20 23 -20 3 0 -3 9 -13 20 -10 11 -20 20 -23
20 -3 0 3 -9 13 -20z"/>
<path d="M6889 1353 c-13 -16 -12 -17 4 -4 16 13 21 21 13 21 -2 0 -10 -8 -17
-17z"/>
<path d="M1375 1323 c-14 -21 -25 -42 -25 -48 0 -9 9 3 45 58 26 41 9 32 -20
-10z"/>
<path d="M1515 1334 c-9 -15 -12 -23 -6 -20 11 7 35 46 28 46 -3 0 -12 -12
-22 -26z"/>
<path d="M2721 1344 c0 -11 3 -14 6 -6 3 7 2 16 -1 19 -3 4 -6 -2 -5 -13z"/>
<path d="M3718 1353 c7 -3 16 -2 19 1 4 3 -2 6 -13 5 -11 0 -14 -3 -6 -6z"/>
<path d="M5181 1355 c1 -19 18 -51 18 -35 0 8 -4 22 -9 30 -5 8 -9 11 -9 5z"/>
<path d="M7181 1343 c0 -13 -6 -23 -13 -23 -9 0 -9 -3 0 -12 16 -16 24 -5 19
29 -3 21 -4 23 -6 6z"/>
<path d="M2218 1343 c7 -3 16 -2 19 1 4 3 -2 6 -13 5 -11 0 -14 -3 -6 -6z"/>
<path d="M2661 1334 c0 -11 3 -14 6 -6 3 7 2 16 -1 19 -3 4 -6 -2 -5 -13z"/>
<path d="M3330 1340 c0 -5 5 -10 11 -10 5 0 7 5 4 10 -3 6 -8 10 -11 10 -2 0
-4 -4 -4 -10z"/>
<path d="M3925 1339 c-4 -6 -5 -12 -2 -15 2 -3 7 2 10 11 7 17 1 20 -8 4z"/>
<path d="M1152 1306 c-50 -35 -39 -48 14 -17 19 12 46 21 60 21 13 0 24 5 24
11 0 6 -6 9 -12 6 -7 -2 -20 -1 -28 3 -9 4 -31 -4 -58 -24z"/>
<path d="M6735 1315 l-30 -13 40 5 c22 3 44 10 50 14 14 14 -26 10 -60 -6z"/>
<path d="M2579 1298 c-12 -23 -12 -23 10 -4 23 21 26 26 11 26 -5 0 -15 -10
-21 -22z"/>
<path d="M3308 1313 c7 -3 16 -2 19 1 4 3 -2 6 -13 5 -11 0 -14 -3 -6 -6z"/>
<path d="M3523 1305 c0 -8 4 -12 9 -9 5 3 6 10 3 15 -9 13 -12 11 -12 -6z"/>
<path d="M6358 1313 c7 -3 16 -2 19 1 4 3 -2 6 -13 5 -11 0 -14 -3 -6 -6z"/>
<path d="M287 1299 c7 -7 15 -10 18 -7 3 3 -2 9 -12 12 -14 6 -15 5 -6 -5z"/>
<path d="M621 1294 c0 -11 3 -14 6 -6 3 7 2 16 -1 19 -3 4 -6 -2 -5 -13z"/>
<path d="M4537 1300 c-20 -4 -40 -10 -44 -13 -8 -8 31 -7 72 2 43 9 18 19 -28
11z"/>
<path d="M7080 1300 c10 -6 -3 -8 -39 -5 -29 2 -50 1 -47 -2 10 -10 96 -20 96
-11 0 4 8 8 18 8 14 0 15 2 2 10 -8 5 -22 10 -30 10 -13 0 -13 -1 0 -10z"/>
<path d="M1052 1289 c-13 -5 -21 -13 -18 -17 3 -5 -20 -16 -50 -26 -31 -10
-53 -20 -50 -23 3 -3 38 5 78 17 40 13 67 25 60 27 -10 4 -10 8 -1 19 13 16
12 16 -19 3z"/>
<path d="M1453 1288 c-23 -30 -24 -41 -2 -21 12 12 20 25 17 28 -3 3 -10 0
-15 -7z"/>
<path d="M1930 1275 c13 -14 26 -25 28 -25 3 0 -5 11 -18 25 -13 14 -26 25
-28 25 -3 0 5 -11 18 -25z"/>
<path d="M3600 1288 c0 -9 5 -20 11 -23 17 -11 18 -2 3 19 -12 17 -14 17 -14
4z"/>
<path d="M4980 1290 c0 -5 5 -10 11 -10 5 0 7 5 4 10 -3 6 -8 10 -11 10 -2 0
-4 -4 -4 -10z"/>
<path d="M6172 1295 c3 -3 26 -13 51 -20 38 -11 48 -11 57 0 8 10 6 13 -12 12
-13 -1 -41 3 -63 7 -22 4 -37 5 -33 1z"/>
<path d="M6365 1290 c-3 -5 1 -10 9 -10 9 0 16 5 16 10 0 6 -4 10 -9 10 -6 0
-13 -4 -16 -10z"/>
<path d="M6833 1293 c-23 -9 -14 -21 20 -27 17 -3 68 -24 112 -47 72 -37 85
-41 140 -37 46 3 83 15 154 48 99 47 123 50 174 23 18 -9 43 -18 57 -20 14 -2
39 -4 57 -6 18 -2 48 -18 69 -37 28 -24 39 -29 43 -19 2 8 9 18 15 22 7 5 3 7
-9 6 -37 -3 -40 2 -10 16 l30 15 -38 -6 c-21 -3 -44 -1 -50 4 -12 10 -61 21
-107 26 -14 1 -39 10 -57 19 -35 19 -68 21 -164 10 l-64 -8 45 -6 45 -6 -52
-1 c-28 -1 -55 -6 -58 -12 -3 -5 -24 -10 -46 -10 -24 0 -38 -4 -34 -10 4 -6
-7 -10 -24 -10 -17 0 -31 4 -31 9 0 5 -33 15 -72 22 -48 8 -66 14 -54 18 15 6
10 10 -21 19 -43 13 -51 13 -70 5z m330 -70 c-7 -2 -19 -2 -25 0 -7 3 -2 5 12
5 14 0 19 -2 13 -5z m-45 -23 c-10 -6 -25 -7 -40 -1 -20 9 -18 10 17 10 31 0
36 -2 23 -9z"/>
<path d="M3288 1283 c7 -3 16 -2 19 1 4 3 -2 6 -13 5 -11 0 -14 -3 -6 -6z"/>
<path d="M3748 1283 c7 -3 16 -2 19 1 4 3 -2 6 -13 5 -11 0 -14 -3 -6 -6z"/>
<path d="M4843 1283 c9 -2 25 -2 35 0 9 3 1 5 -18 5 -19 0 -27 -2 -17 -5z"/>
<path d="M6080 1286 c0 -2 8 -10 18 -17 15 -13 16 -12 3 4 -13 16 -21 21 -21
13z"/>
<path d="M6300 1282 c0 -10 44 -32 65 -32 8 0 15 5 15 10 0 6 -9 10 -21 10
-11 0 -29 5 -40 10 -10 6 -19 7 -19 2z"/>
<path d="M30 1276 c0 -2 11 -6 25 -8 13 -3 22 -1 19 3 -5 9 -44 13 -44 5z"/>
<path d="M118 1273 c6 -2 18 -2 25 0 6 3 1 5 -13 5 -14 0 -19 -2 -12 -5z"/>
<path d="M5355 1270 c-3 -5 1 -10 10 -10 9 0 13 5 10 10 -3 6 -8 10 -10 10 -2
0 -7 -4 -10 -10z"/>
<path d="M5874 1265 c10 -8 39 -17 65 -21 25 -4 57 -11 71 -16 14 -5 66 -11
115 -12 51 -1 77 1 60 5 -16 3 -57 7 -90 8 -36 1 -78 9 -104 21 -23 11 -47 17
-52 14 -5 -3 -26 0 -46 5 -34 9 -36 9 -19 -4z"/>
<path d="M1628 1263 c7 -3 16 -2 19 1 4 3 -2 6 -13 5 -11 0 -14 -3 -6 -6z"/>
<path d="M2101 1251 c-11 -11 -32 -21 -48 -24 -27 -4 -27 -4 4 -6 22 -1 41 7
59 24 15 14 22 25 15 25 -6 0 -20 -9 -30 -19z"/>
<path d="M3288 1263 c7 -3 16 -2 19 1 4 3 -2 6 -13 5 -11 0 -14 -3 -6 -6z"/>
<path d="M4820 1260 c-23 -7 -23 -8 -3 -9 12 -1 25 4 28 9 3 6 5 10 3 9 -2 -1
-14 -5 -28 -9z"/>
<path d="M5650 1259 c0 -5 5 -7 10 -4 6 3 10 8 10 11 0 2 -4 4 -10 4 -5 0 -10
-5 -10 -11z"/>
<path d="M2546 1239 c5 -23 2 -27 -27 -33 -17 -3 -53 -6 -78 -6 -26 0 -51 -4
-56 -9 -6 -6 -32 -12 -60 -14 -48 -3 -47 -3 13 -5 40 -1 61 2 57 8 -4 6 21 10
69 10 107 0 125 11 91 56 -15 18 -15 18 -9 -7z"/>
<path d="M3748 1253 c6 -2 18 -2 25 0 6 3 1 5 -13 5 -14 0 -19 -2 -12 -5z"/>
<path d="M92 1235 c-41 -7 -77 -17 -80 -21 -4 -4 6 -4 23 0 17 4 88 9 160 12
112 5 141 3 209 -15 43 -11 83 -18 88 -15 5 3 16 0 24 -7 8 -6 16 -10 19 -7 2
2 -10 12 -27 22 -19 12 -28 14 -23 6 6 -10 4 -11 -11 -5 -99 43 -247 55 -382
30z"/>
<path d="M4955 1240 c3 -5 8 -10 11 -10 2 0 4 5 4 10 0 6 -5 10 -11 10 -5 0
-7 -4 -4 -10z"/>
<path d="M3278 1233 c7 -3 16 -2 19 1 4 3 -2 6 -13 5 -11 0 -14 -3 -6 -6z"/>
<path d="M4650 1225 c-10 -12 -15 -13 -20 -4 -5 7 -10 7 -14 1 -3 -5 0 -15 7
-21 11 -8 19 -5 37 14 13 14 19 25 13 25 -6 0 -16 -7 -23 -15z"/>
<path d="M4825 1230 c-18 -8 -17 -9 8 -9 15 -1 27 4 27 9 0 12 -8 12 -35 0z"/>
<path d="M5644 1225 c-18 -13 -18 -14 4 -8 12 3 25 9 28 14 8 14 -10 11 -32
-6z"/>
<path d="M5810 1230 c-13 -8 -12 -10 3 -10 9 0 17 5 17 10 0 12 -1 12 -20 0z"/>
<path d="M6790 1232 c0 -6 9 -12 20 -15 11 -3 20 -3 20 -1 0 2 -9 8 -20 14
-11 6 -20 7 -20 2z"/>
<path d="M962 1208 c-29 -12 -50 -23 -48 -25 6 -6 108 26 121 38 15 15 -16 9
-73 -13z"/>
<path d="M3638 1223 c7 -3 16 -2 19 1 4 3 -2 6 -13 5 -11 0 -14 -3 -6 -6z"/>
<path d="M540 1215 c0 -8 102 -57 107 -51 3 2 -9 12 -26 20 -41 21 -81 37 -81
31z"/>
<path d="M1573 1213 c9 -2 23 -2 30 0 6 3 -1 5 -18 5 -16 0 -22 -2 -12 -5z"/>
<path d="M5850 1210 c19 -13 30 -13 30 0 0 6 -10 10 -22 10 -19 0 -20 -2 -8
-10z"/>
<path d="M6306 1213 c-3 -4 -32 -13 -64 -20 l-57 -13 58 3 c37 3 64 10 75 20
9 10 12 17 6 17 -6 0 -14 -3 -18 -7z"/>
<path d="M6850 1209 c0 -5 4 -8 9 -4 6 3 14 -3 20 -12 6 -10 11 -13 11 -7 0
12 -20 34 -32 34 -4 0 -8 -5 -8 -11z"/>
<path d="M635 1204 c6 -5 23 -20 39 -34 26 -22 28 -23 22 -5 -6 16 -2 15 21
-8 34 -32 47 -35 38 -7 -7 24 2 25 29 5 22 -17 36 -19 36 -7 0 4 -20 18 -45
30 -38 18 -45 19 -45 6 0 -12 -6 -11 -32 7 -22 16 -28 17 -19 6 17 -22 8 -22
-27 0 -15 9 -22 12 -17 7z"/>
<path d="M2008 1203 c12 -2 30 -2 40 0 9 3 -1 5 -23 4 -22 0 -30 -2 -17 -4z"/>
<path d="M4850 1200 c-13 -8 -12 -10 3 -10 9 0 17 5 17 10 0 12 -1 12 -20 0z"/>
<path d="M6900 1205 c0 -5 5 -17 10 -25 5 -8 10 -10 10 -5 0 6 -5 17 -10 25
-5 8 -10 11 -10 5z"/>
<path d="M7788 1203 c7 -3 16 -2 19 1 4 3 -2 6 -13 5 -11 0 -14 -3 -6 -6z"/>
<path d="M2115 1190 c-3 -5 -2 -10 4 -10 5 0 13 5 16 10 3 6 2 10 -4 10 -5 0
-13 -4 -16 -10z"/>
<path d="M4556 1184 c-10 -25 1 -29 14 -5 6 12 7 21 1 21 -5 0 -12 -7 -15 -16z"/>
<path d="M5635 1190 c-17 -7 -15 -9 13 -9 17 -1 32 4 32 9 0 12 -17 12 -45 0z"/>
<path d="M6370 1190 c-13 -8 -12 -10 3 -10 9 0 17 5 17 10 0 12 -1 12 -20 0z"/>
<path d="M6930 1191 c0 -5 7 -15 17 -22 15 -13 15 -12 4 9 -12 23 -21 28 -21
13z"/>
<path d="M960 1173 c-72 -23 -90 -33 -50 -27 50 8 99 24 105 35 7 11 2 10 -55
-8z"/>
<path d="M1045 1178 c-11 -6 -45 -20 -75 -29 -48 -16 -51 -18 -23 -18 18 -1
54 7 80 17 34 12 60 16 88 11 46 -8 105 -1 105 12 0 5 -19 8 -42 7 -24 -2 -59
1 -78 4 -21 5 -43 3 -55 -4z"/>
<path d="M2713 1178 c28 -7 42 -7 50 1 8 8 -2 11 -38 10 l-50 -1 38 -10z"/>
<path d="M4870 1180 c-9 -6 -10 -10 -3 -10 6 0 15 5 18 10 8 12 4 12 -15 0z"/>
<path d="M6410 1175 c-14 -8 -20 -14 -14 -15 5 0 19 7 30 15 24 18 16 19 -16
0z"/>
<path d="M6464 1174 c-18 -14 -18 -15 4 -4 12 6 22 13 22 15 0 8 -5 6 -26 -11z"/>
<path d="M6510 1175 c-7 -8 -8 -15 -2 -15 5 0 15 7 22 15 7 8 8 15 2 15 -5 0
-15 -7 -22 -15z"/>
<path d="M6969 1173 c6 -13 19 -23 28 -23 9 0 14 1 12 3 -2 1 -15 11 -28 22
l-24 20 12 -22z"/>
<path d="M7582 1174 c10 -10 20 -16 22 -13 3 3 -5 11 -17 18 -21 13 -21 12 -5
-5z"/>
<path d="M1642 1168 c-37 -7 -52 -14 -49 -23 4 -9 -22 -16 -101 -24 -59 -7
-109 -15 -112 -18 -6 -6 232 7 243 14 5 3 6 11 3 19 -3 9 3 15 17 18 12 3 40
9 62 14 53 13 7 13 -63 0z"/>
<path d="M2003 1173 c9 -2 23 -2 30 0 6 3 -1 5 -18 5 -16 0 -22 -2 -12 -5z"/>
<path d="M2168 1173 c6 -2 18 -2 25 0 6 3 1 5 -13 5 -14 0 -19 -2 -12 -5z"/>
<path d="M3415 1170 c3 -5 10 -10 16 -10 5 0 9 5 9 10 0 6 -7 10 -16 10 -8 0
-12 -4 -9 -10z"/>
<path d="M3643 1173 c9 -2 23 -2 30 0 6 3 -1 5 -18 5 -16 0 -22 -2 -12 -5z"/>
<path d="M4103 1173 c9 -2 25 -2 35 0 9 3 1 5 -18 5 -19 0 -27 -2 -17 -5z"/>
<path d="M6555 1170 c-3 -6 1 -7 9 -4 18 7 21 14 7 14 -6 0 -13 -4 -16 -10z"/>
<path d="M5090 1160 c8 -5 22 -9 30 -9 10 0 8 3 -5 9 -27 12 -43 12 -25 0z"/>
<path d="M5208 1163 c7 -3 16 -2 19 1 4 3 -2 6 -13 5 -11 0 -14 -3 -6 -6z"/>
<path d="M5648 1163 c6 -2 18 -2 25 0 6 3 1 5 -13 5 -14 0 -19 -2 -12 -5z"/>
<path d="M7350 1160 l-45 -7 53 -1 c29 -1 52 2 52 8 0 6 -3 9 -7 8 -5 0 -28
-4 -53 -8z"/>
<path d="M7550 1167 c0 -3 12 -12 26 -22 15 -9 23 -12 20 -6 -7 11 -46 35 -46
28z"/>
<path d="M2638 1153 c12 -2 30 -2 40 0 9 3 -1 5 -23 4 -22 0 -30 -2 -17 -4z"/>
<path d="M3440 1150 c-24 -8 -23 -8 8 -9 17 -1 32 4 32 9 0 11 -5 11 -40 0z"/>
<path d="M3658 1153 c6 -2 18 -2 25 0 6 3 1 5 -13 5 -14 0 -19 -2 -12 -5z"/>
<path d="M4085 1150 c3 -5 10 -10 16 -10 5 0 9 5 9 10 0 6 -7 10 -16 10 -8 0
-12 -4 -9 -10z"/>
<path d="M5528 1153 c6 -2 18 -2 25 0 6 3 1 5 -13 5 -14 0 -19 -2 -12 -5z"/>
<path d="M5608 1153 c7 -3 16 -2 19 1 4 3 -2 6 -13 5 -11 0 -14 -3 -6 -6z"/>
<path d="M7020 1156 c0 -2 7 -9 15 -16 9 -7 15 -8 15 -2 0 5 -7 12 -15 16 -8
3 -15 4 -15 2z"/>
<path d="M265 1140 c-3 -5 -1 -10 4 -10 6 0 11 5 11 10 0 6 -2 10 -4 10 -3 0
-8 -4 -11 -10z"/>
<path d="M296 1142 c-5 -9 134 -4 143 4 2 2 -28 4 -67 4 -39 0 -73 -4 -76 -8z"/>
<path d="M6878 1143 c7 -3 16 -2 19 1 4 3 -2 6 -13 5 -11 0 -14 -3 -6 -6z"/>
<path d="M7532 1134 c10 -10 20 -15 24 -12 3 4 -5 12 -18 18 -22 12 -22 12 -6
-6z"/>
<path d="M185 1130 c-3 -5 -2 -10 4 -10 5 0 13 5 16 10 3 6 2 10 -4 10 -5 0
-13 -4 -16 -10z"/>
<path d="M2150 1130 c20 -13 43 -13 35 0 -3 6 -16 10 -28 10 -18 0 -19 -2 -7
-10z"/>
<path d="M2500 1130 c-12 -8 -11 -10 8 -10 12 0 22 5 22 10 0 13 -11 13 -30 0z"/>
<path d="M2963 1125 c0 -18 33 -20 40 -2 3 8 -4 14 -17 15 -14 1 -23 -4 -23
-13z"/>
<path d="M3485 1130 c-18 -8 -17 -9 8 -9 15 -1 27 4 27 9 0 12 -8 12 -35 0z"/>
<path d="M3688 1133 c7 -3 16 -2 19 1 4 3 -2 6 -13 5 -11 0 -14 -3 -6 -6z"/>
<path d="M3928 1133 c12 -2 30 -2 40 0 9 3 -1 5 -23 4 -22 0 -30 -2 -17 -4z"/>
<path d="M4385 1130 c-18 -8 -17 -9 8 -9 15 -1 27 4 27 9 0 12 -8 12 -35 0z"/>
<path d="M6268 1133 c7 -3 16 -2 19 1 4 3 -2 6 -13 5 -11 0 -14 -3 -6 -6z"/>
<path d="M2013 1123 c9 -2 23 -2 30 0 6 3 -1 5 -18 5 -16 0 -22 -2 -12 -5z"/>
<path d="M2640 1126 c0 -9 30 -14 35 -6 4 6 -3 10 -14 10 -12 0 -21 -2 -21 -4z"/>
<path d="M4263 1123 c9 -2 23 -2 30 0 6 3 -1 5 -18 5 -16 0 -22 -2 -12 -5z"/>
<path d="M7125 1120 c3 -5 10 -10 16 -10 5 0 9 5 9 10 0 6 -7 10 -16 10 -8 0
-12 -4 -9 -10z"/>
<path d="M1915 1110 c11 -5 38 -8 60 -8 38 0 39 1 10 8 -16 4 -43 8 -60 8 -25
1 -27 -1 -10 -8z"/>
<path d="M2110 1110 c-11 -7 -7 -10 18 -10 20 0 31 4 27 10 -8 13 -26 13 -45
0z"/>
<path d="M2525 1110 l-40 -7 50 -1 c28 -1 57 3 65 8 18 11 -11 11 -75 0z"/>
<path d="M7448 1113 c6 -2 18 -2 25 0 6 3 1 5 -13 5 -14 0 -19 -2 -12 -5z"/>
<path d="M628 1103 c7 -3 16 -2 19 1 4 3 -2 6 -13 5 -11 0 -14 -3 -6 -6z"/>
<path d="M960 1100 l-45 -7 53 -1 c29 -1 52 2 52 8 0 6 -3 9 -7 8 -5 0 -28 -4
-53 -8z"/>
<path d="M3938 1103 c6 -2 18 -2 25 0 6 3 1 5 -13 5 -14 0 -19 -2 -12 -5z"/>
<path d="M4438 1103 c6 -2 18 -2 25 0 6 3 1 5 -13 5 -14 0 -19 -2 -12 -5z"/>
<path d="M5188 1103 c7 -3 16 -2 19 1 4 3 -2 6 -13 5 -11 0 -14 -3 -6 -6z"/>
<path d="M7400 1100 c0 -5 5 -10 11 -10 5 0 7 5 4 10 -3 6 -8 10 -11 10 -2 0
-4 -4 -4 -10z"/>
<path d="M690 1090 c8 -5 22 -9 30 -9 10 0 8 3 -5 9 -27 12 -43 12 -25 0z"/>
<path d="M1128 1093 c7 -3 16 -2 19 1 4 3 -2 6 -13 5 -11 0 -14 -3 -6 -6z"/>
<path d="M1228 1093 c6 -2 18 -2 25 0 6 3 1 5 -13 5 -14 0 -19 -2 -12 -5z"/>
<path d="M1768 1093 c7 -3 16 -2 19 1 4 3 -2 6 -13 5 -11 0 -14 -3 -6 -6z"/>
<path d="M2360 1090 c-13 -9 -13 -10 0 -10 8 0 22 5 30 10 13 9 13 10 0 10 -8
0 -22 -5 -30 -10z"/>
<path d="M5378 1093 c6 -2 18 -2 25 0 6 3 1 5 -13 5 -14 0 -19 -2 -12 -5z"/>
<path d="M828 1083 c7 -3 16 -2 19 1 4 3 -2 6 -13 5 -11 0 -14 -3 -6 -6z"/>
<path d="M2088 1083 c7 -3 16 -2 19 1 4 3 -2 6 -13 5 -11 0 -14 -3 -6 -6z"/>
<path d="M7130 1086 c0 -2 7 -6 15 -10 8 -3 15 -1 15 4 0 6 -7 10 -15 10 -8 0
-15 -2 -15 -4z"/>
<path d="M1618 1073 c6 -2 18 -2 25 0 6 3 1 5 -13 5 -14 0 -19 -2 -12 -5z"/>
<path d="M1933 1073 c15 -2 37 -2 50 0 12 2 0 4 -28 4 -27 0 -38 -2 -22 -4z"/>
<path d="M2208 1073 c6 -2 18 -2 25 0 6 3 1 5 -13 5 -14 0 -19 -2 -12 -5z"/>
<path d="M2468 1073 c6 -2 18 -2 25 0 6 3 1 5 -13 5 -14 0 -19 -2 -12 -5z"/>
</g>
</svg>
